<svg width="335" height="185" viewBox="0 0 335 185" fill="none" xmlns="http://www.w3.org/2000/svg">
<rect width="335" height="185" rx="20" fill="url(#paint0_linear_8_856)"/>
<g filter="url(#filter0_b_8_856)">
<rect width="335" height="185" rx="20" fill="white" fill-opacity="0.03"/>
</g>
<path fill-rule="evenodd" clip-rule="evenodd" d="M257.364 185C264.87 166.301 269 145.883 269 124.5C269 74.5193 246.435 29.8088 210.938 0L20 0C8.95431 0 0 8.9543 0 20V165C0 176.046 8.95431 185 20 185H257.364Z" fill="white" fill-opacity="0.06"/>
<path fill-rule="evenodd" clip-rule="evenodd" d="M239.635 185C245.699 167.964 249 149.617 249 130.5C249 77.0432 223.188 29.6152 183.347 0L20 0C8.95431 0 0 8.9543 0 20V165C0 176.046 8.95431 185 20 185H239.635Z" fill="white" fill-opacity="0.06"/>
<path d="M32.016 145H27.024L26.704 149.272H26.816C27.0933 148.899 27.4027 148.605 27.744 148.392C28.0853 148.168 28.5547 148.056 29.152 148.056C29.6427 148.056 30.0907 148.136 30.496 148.296C30.912 148.445 31.2693 148.669 31.568 148.968C31.8667 149.267 32.1013 149.629 32.272 150.056C32.4427 150.472 32.528 150.952 32.528 151.496C32.528 152.04 32.4427 152.541 32.272 153C32.1013 153.448 31.8507 153.837 31.52 154.168C31.1893 154.488 30.7893 154.739 30.32 154.92C29.8507 155.101 29.3173 155.192 28.72 155.192C28.2507 155.192 27.8293 155.139 27.456 155.032C27.0933 154.925 26.768 154.781 26.48 154.6C26.2027 154.419 25.9573 154.216 25.744 153.992C25.5307 153.768 25.3387 153.533 25.168 153.288L26.176 152.52C26.3253 152.744 26.4747 152.947 26.624 153.128C26.784 153.309 26.9653 153.469 27.168 153.608C27.3707 153.736 27.6 153.837 27.856 153.912C28.112 153.987 28.4107 154.024 28.752 154.024C29.52 154.024 30.1067 153.816 30.512 153.4C30.928 152.984 31.136 152.408 31.136 151.672V151.544C31.136 150.808 30.928 150.232 30.512 149.816C30.096 149.4 29.4987 149.192 28.72 149.192C28.1867 149.192 27.7707 149.283 27.472 149.464C27.184 149.645 26.9173 149.869 26.672 150.136L25.536 149.976L25.936 143.832H32.016V145ZM42.1858 155H34.7298V153.624L38.4578 150.264C39.0018 149.773 39.4498 149.272 39.8018 148.76C40.1538 148.237 40.3298 147.688 40.3298 147.112V146.92C40.3298 146.248 40.1538 145.731 39.8018 145.368C39.4498 144.995 38.9271 144.808 38.2338 144.808C37.5511 144.808 37.0231 144.984 36.6498 145.336C36.2871 145.677 36.0151 146.136 35.8338 146.712L34.6338 146.264C34.7404 145.933 34.8844 145.613 35.0658 145.304C35.2578 144.984 35.4978 144.701 35.7858 144.456C36.0738 144.211 36.4204 144.013 36.8258 143.864C37.2418 143.715 37.7218 143.64 38.2658 143.64C38.8204 143.64 39.3111 143.72 39.7378 143.88C40.1751 144.04 40.5378 144.264 40.8258 144.552C41.1244 144.84 41.3484 145.181 41.4978 145.576C41.6578 145.971 41.7378 146.403 41.7378 146.872C41.7378 147.299 41.6738 147.699 41.5458 148.072C41.4284 148.445 41.2578 148.803 41.0338 149.144C40.8204 149.485 40.5591 149.821 40.2498 150.152C39.9511 150.472 39.6151 150.792 39.2418 151.112L36.1218 153.832H42.1858V155ZM49.2355 155V152.808H43.7315V151.624L48.5635 143.832H50.5155V151.704H52.1795V152.808H50.5155V155H49.2355ZM44.9315 151.704H49.2355V144.872H49.1715L44.9315 151.704ZM61.3733 155H53.9173V153.624L57.6453 150.264C58.1893 149.773 58.6373 149.272 58.9893 148.76C59.3413 148.237 59.5173 147.688 59.5173 147.112V146.92C59.5173 146.248 59.3413 145.731 58.9893 145.368C58.6373 144.995 58.1146 144.808 57.4213 144.808C56.7386 144.808 56.2106 144.984 55.8373 145.336C55.4746 145.677 55.2026 146.136 55.0213 146.712L53.8213 146.264C53.9279 145.933 54.0719 145.613 54.2533 145.304C54.4453 144.984 54.6853 144.701 54.9733 144.456C55.2613 144.211 55.6079 144.013 56.0133 143.864C56.4293 143.715 56.9093 143.64 57.4533 143.64C58.0079 143.64 58.4986 143.72 58.9253 143.88C59.3626 144.04 59.7253 144.264 60.0133 144.552C60.3119 144.84 60.5359 145.181 60.6853 145.576C60.8453 145.971 60.9253 146.403 60.9253 146.872C60.9253 147.299 60.8613 147.699 60.7333 148.072C60.6159 148.445 60.4453 148.803 60.2213 149.144C60.0079 149.485 59.7466 149.821 59.4373 150.152C59.1386 150.472 58.8026 150.792 58.4293 151.112L55.3093 153.832H61.3733V155ZM74.4488 150.808V149.464H79.0888V150.808H74.4488ZM97.2043 155V152.808H91.7003V151.624L96.5323 143.832H98.4843V151.704H100.148V152.808H98.4843V155H97.2043ZM92.9003 151.704H97.2043V144.872H97.1403L92.9003 151.704ZM105.07 148.568C105.849 148.568 106.43 148.397 106.814 148.056C107.209 147.704 107.406 147.256 107.406 146.712V146.6C107.406 146.003 107.214 145.555 106.83 145.256C106.457 144.957 105.966 144.808 105.358 144.808C104.761 144.808 104.275 144.941 103.902 145.208C103.539 145.464 103.241 145.805 103.006 146.232L101.998 145.464C102.137 145.24 102.307 145.021 102.51 144.808C102.713 144.584 102.947 144.387 103.214 144.216C103.491 144.045 103.806 143.907 104.158 143.8C104.521 143.693 104.931 143.64 105.39 143.64C105.87 143.64 106.318 143.704 106.734 143.832C107.15 143.949 107.513 144.131 107.822 144.376C108.131 144.611 108.371 144.904 108.542 145.256C108.723 145.608 108.814 146.008 108.814 146.456C108.814 146.819 108.755 147.144 108.638 147.432C108.531 147.72 108.377 147.971 108.174 148.184C107.982 148.397 107.753 148.579 107.486 148.728C107.219 148.877 106.937 148.989 106.638 149.064V149.128C106.947 149.192 107.246 149.299 107.534 149.448C107.822 149.587 108.078 149.773 108.302 150.008C108.526 150.232 108.702 150.509 108.83 150.84C108.969 151.16 109.038 151.528 109.038 151.944C109.038 152.424 108.942 152.867 108.75 153.272C108.569 153.667 108.307 154.008 107.966 154.296C107.635 154.573 107.23 154.792 106.75 154.952C106.281 155.112 105.758 155.192 105.182 155.192C104.691 155.192 104.254 155.139 103.87 155.032C103.497 154.925 103.161 154.781 102.862 154.6C102.574 154.419 102.318 154.216 102.094 153.992C101.881 153.768 101.689 153.533 101.518 153.288L102.526 152.52C102.675 152.744 102.83 152.947 102.99 153.128C103.15 153.309 103.331 153.469 103.534 153.608C103.747 153.736 103.987 153.837 104.254 153.912C104.521 153.987 104.83 154.024 105.182 154.024C105.971 154.024 106.574 153.843 106.99 153.48C107.417 153.117 107.63 152.6 107.63 151.928V151.8C107.63 151.139 107.422 150.627 107.006 150.264C106.601 149.901 105.987 149.72 105.166 149.72H103.838V148.568H105.07ZM116.392 155V152.808H110.888V151.624L115.72 143.832H117.672V151.704H119.336V152.808H117.672V155H116.392ZM112.088 151.704H116.392V144.872H116.328L112.088 151.704ZM124.258 148.568C125.036 148.568 125.618 148.397 126.002 148.056C126.396 147.704 126.594 147.256 126.594 146.712V146.6C126.594 146.003 126.402 145.555 126.018 145.256C125.644 144.957 125.154 144.808 124.546 144.808C123.948 144.808 123.463 144.941 123.09 145.208C122.727 145.464 122.428 145.805 122.194 146.232L121.186 145.464C121.324 145.24 121.495 145.021 121.698 144.808C121.9 144.584 122.135 144.387 122.402 144.216C122.679 144.045 122.994 143.907 123.346 143.8C123.708 143.693 124.119 143.64 124.578 143.64C125.058 143.64 125.506 143.704 125.922 143.832C126.338 143.949 126.7 144.131 127.01 144.376C127.319 144.611 127.559 144.904 127.73 145.256C127.911 145.608 128.002 146.008 128.002 146.456C128.002 146.819 127.943 147.144 127.826 147.432C127.719 147.72 127.564 147.971 127.362 148.184C127.17 148.397 126.94 148.579 126.674 148.728C126.407 148.877 126.124 148.989 125.826 149.064V149.128C126.135 149.192 126.434 149.299 126.722 149.448C127.01 149.587 127.266 149.773 127.49 150.008C127.714 150.232 127.89 150.509 128.017 150.84C128.156 151.16 128.226 151.528 128.226 151.944C128.226 152.424 128.13 152.867 127.938 153.272C127.756 153.667 127.495 154.008 127.154 154.296C126.823 154.573 126.418 154.792 125.938 154.952C125.468 155.112 124.946 155.192 124.37 155.192C123.879 155.192 123.442 155.139 123.058 155.032C122.684 154.925 122.348 154.781 122.049 154.6C121.762 154.419 121.506 154.216 121.282 153.992C121.068 153.768 120.876 153.533 120.706 153.288L121.714 152.52C121.863 152.744 122.018 152.947 122.178 153.128C122.338 153.309 122.519 153.469 122.722 153.608C122.935 153.736 123.175 153.837 123.442 153.912C123.708 153.987 124.018 154.024 124.37 154.024C125.159 154.024 125.762 153.843 126.178 153.48C126.604 153.117 126.818 152.6 126.818 151.928V151.8C126.818 151.139 126.61 150.627 126.194 150.264C125.788 149.901 125.175 149.72 124.354 149.72H123.026V148.568H124.258ZM141.605 150.808V149.464H146.245V150.808H141.605ZM163.113 155.192C162.462 155.192 161.891 155.112 161.401 154.952C160.91 154.781 160.499 154.552 160.169 154.264C159.849 153.976 159.603 153.635 159.433 153.24C159.273 152.845 159.193 152.419 159.193 151.96C159.193 151.192 159.401 150.584 159.817 150.136C160.233 149.688 160.782 149.373 161.465 149.192V149.064C160.867 148.861 160.393 148.536 160.041 148.088C159.699 147.629 159.529 147.08 159.529 146.44C159.529 145.587 159.843 144.909 160.473 144.408C161.102 143.896 161.982 143.64 163.113 143.64C164.243 143.64 165.123 143.896 165.753 144.408C166.382 144.909 166.697 145.587 166.697 146.44C166.697 147.08 166.521 147.629 166.169 148.088C165.827 148.536 165.358 148.861 164.761 149.064V149.192C165.443 149.373 165.993 149.688 166.409 150.136C166.825 150.584 167.033 151.192 167.033 151.96C167.033 152.419 166.947 152.845 166.777 153.24C166.617 153.635 166.371 153.976 166.041 154.264C165.71 154.552 165.299 154.781 164.809 154.952C164.329 155.112 163.763 155.192 163.113 155.192ZM163.113 154.056C163.902 154.056 164.521 153.88 164.969 153.528C165.417 153.176 165.641 152.68 165.641 152.04V151.688C165.641 151.048 165.417 150.552 164.969 150.2C164.531 149.848 163.913 149.672 163.113 149.672C162.313 149.672 161.689 149.848 161.241 150.2C160.803 150.552 160.585 151.048 160.585 151.688V152.04C160.585 152.68 160.809 153.176 161.257 153.528C161.705 153.88 162.323 154.056 163.113 154.056ZM163.113 148.584C163.838 148.584 164.387 148.429 164.761 148.12C165.145 147.811 165.337 147.368 165.337 146.792V146.568C165.337 145.992 165.139 145.549 164.745 145.24C164.361 144.931 163.817 144.776 163.113 144.776C162.409 144.776 161.859 144.931 161.465 145.24C161.081 145.549 160.889 145.992 160.889 146.568V146.792C160.889 147.368 161.075 147.811 161.449 148.12C161.833 148.429 162.387 148.584 163.113 148.584ZM172.226 148.568C173.005 148.568 173.586 148.397 173.97 148.056C174.365 147.704 174.562 147.256 174.562 146.712V146.6C174.562 146.003 174.37 145.555 173.986 145.256C173.613 144.957 173.122 144.808 172.514 144.808C171.917 144.808 171.432 144.941 171.058 145.208C170.696 145.464 170.397 145.805 170.162 146.232L169.154 145.464C169.293 145.24 169.464 145.021 169.666 144.808C169.869 144.584 170.104 144.387 170.37 144.216C170.648 144.045 170.962 143.907 171.314 143.8C171.677 143.693 172.088 143.64 172.546 143.64C173.026 143.64 173.474 143.704 173.89 143.832C174.306 143.949 174.669 144.131 174.978 144.376C175.288 144.611 175.528 144.904 175.698 145.256C175.88 145.608 175.97 146.008 175.97 146.456C175.97 146.819 175.912 147.144 175.794 147.432C175.688 147.72 175.533 147.971 175.33 148.184C175.138 148.397 174.909 148.579 174.642 148.728C174.376 148.877 174.093 148.989 173.794 149.064V149.128C174.104 149.192 174.402 149.299 174.69 149.448C174.978 149.587 175.234 149.773 175.458 150.008C175.682 150.232 175.858 150.509 175.986 150.84C176.125 151.16 176.194 151.528 176.194 151.944C176.194 152.424 176.098 152.867 175.906 153.272C175.725 153.667 175.464 154.008 175.122 154.296C174.792 154.573 174.386 154.792 173.906 154.952C173.437 155.112 172.914 155.192 172.338 155.192C171.848 155.192 171.41 155.139 171.026 155.032C170.653 154.925 170.317 154.781 170.018 154.6C169.73 154.419 169.474 154.216 169.25 153.992C169.037 153.768 168.845 153.533 168.674 153.288L169.682 152.52C169.832 152.744 169.986 152.947 170.146 153.128C170.306 153.309 170.488 153.469 170.69 153.608C170.904 153.736 171.144 153.837 171.41 153.912C171.677 153.987 171.986 154.024 172.338 154.024C173.128 154.024 173.73 153.843 174.146 153.48C174.573 153.117 174.786 152.6 174.786 151.928V151.8C174.786 151.139 174.578 150.627 174.162 150.264C173.757 149.901 173.144 149.72 172.322 149.72H170.994V148.568H172.226ZM183.548 155V152.808H178.044V151.624L182.876 143.832H184.828V151.704H186.492V152.808H184.828V155H183.548ZM179.244 151.704H183.548V144.872H183.484L179.244 151.704ZM191.894 155.192C191.243 155.192 190.672 155.112 190.182 154.952C189.691 154.781 189.28 154.552 188.95 154.264C188.63 153.976 188.384 153.635 188.214 153.24C188.054 152.845 187.974 152.419 187.974 151.96C187.974 151.192 188.182 150.584 188.598 150.136C189.014 149.688 189.563 149.373 190.246 149.192V149.064C189.648 148.861 189.174 148.536 188.822 148.088C188.48 147.629 188.31 147.08 188.31 146.44C188.31 145.587 188.624 144.909 189.254 144.408C189.883 143.896 190.763 143.64 191.894 143.64C193.024 143.64 193.904 143.896 194.534 144.408C195.163 144.909 195.478 145.587 195.478 146.44C195.478 147.08 195.302 147.629 194.95 148.088C194.608 148.536 194.139 148.861 193.542 149.064V149.192C194.224 149.373 194.774 149.688 195.19 150.136C195.606 150.584 195.814 151.192 195.814 151.96C195.814 152.419 195.728 152.845 195.558 153.24C195.398 153.635 195.152 153.976 194.822 154.264C194.491 154.552 194.08 154.781 193.59 154.952C193.11 155.112 192.544 155.192 191.894 155.192ZM191.894 154.056C192.683 154.056 193.302 153.88 193.75 153.528C194.198 153.176 194.422 152.68 194.422 152.04V151.688C194.422 151.048 194.198 150.552 193.75 150.2C193.312 149.848 192.694 149.672 191.894 149.672C191.094 149.672 190.47 149.848 190.022 150.2C189.584 150.552 189.366 151.048 189.366 151.688V152.04C189.366 152.68 189.59 153.176 190.038 153.528C190.486 153.88 191.104 154.056 191.894 154.056ZM191.894 148.584C192.619 148.584 193.168 148.429 193.542 148.12C193.926 147.811 194.118 147.368 194.118 146.792V146.568C194.118 145.992 193.92 145.549 193.526 145.24C193.142 144.931 192.598 144.776 191.894 144.776C191.19 144.776 190.64 144.931 190.246 145.24C189.862 145.549 189.67 145.992 189.67 146.568V146.792C189.67 147.368 189.856 147.811 190.23 148.12C190.614 148.429 191.168 148.584 191.894 148.584ZM208.761 150.808V149.464H213.401V150.808H208.761ZM231.517 155V152.808H226.013V151.624L230.845 143.832H232.797V151.704H234.461V152.808H232.797V155H231.517ZM227.213 151.704H231.517V144.872H231.453L227.213 151.704ZM239.863 155.192C239.212 155.192 238.641 155.112 238.151 154.952C237.66 154.781 237.249 154.552 236.919 154.264C236.599 153.976 236.353 153.635 236.183 153.24C236.023 152.845 235.943 152.419 235.943 151.96C235.943 151.192 236.151 150.584 236.567 150.136C236.983 149.688 237.532 149.373 238.215 149.192V149.064C237.617 148.861 237.143 148.536 236.791 148.088C236.449 147.629 236.279 147.08 236.279 146.44C236.279 145.587 236.593 144.909 237.223 144.408C237.852 143.896 238.732 143.64 239.863 143.64C240.993 143.64 241.873 143.896 242.503 144.408C243.132 144.909 243.447 145.587 243.447 146.44C243.447 147.08 243.271 147.629 242.919 148.088C242.577 148.536 242.108 148.861 241.511 149.064V149.192C242.193 149.373 242.743 149.688 243.159 150.136C243.575 150.584 243.783 151.192 243.783 151.96C243.783 152.419 243.697 152.845 243.527 153.24C243.367 153.635 243.121 153.976 242.791 154.264C242.46 154.552 242.049 154.781 241.559 154.952C241.079 155.112 240.513 155.192 239.863 155.192ZM239.863 154.056C240.652 154.056 241.271 153.88 241.719 153.528C242.167 153.176 242.391 152.68 242.391 152.04V151.688C242.391 151.048 242.167 150.552 241.719 150.2C241.281 149.848 240.663 149.672 239.863 149.672C239.063 149.672 238.439 149.848 237.991 150.2C237.553 150.552 237.335 151.048 237.335 151.688V152.04C237.335 152.68 237.559 153.176 238.007 153.528C238.455 153.88 239.073 154.056 239.863 154.056ZM239.863 148.584C240.588 148.584 241.137 148.429 241.511 148.12C241.895 147.811 242.087 147.368 242.087 146.792V146.568C242.087 145.992 241.889 145.549 241.495 145.24C241.111 144.931 240.567 144.776 239.863 144.776C239.159 144.776 238.609 144.931 238.215 145.24C237.831 145.549 237.639 145.992 237.639 146.568V146.792C237.639 147.368 237.825 147.811 238.199 148.12C238.583 148.429 239.137 148.584 239.863 148.584ZM247.424 155L251.792 144.984H246.896V147.064H245.696V143.832H253.152V145.016L248.864 155H247.424ZM259.05 155.192C258.399 155.192 257.829 155.112 257.338 154.952C256.847 154.781 256.437 154.552 256.106 154.264C255.786 153.976 255.541 153.635 255.37 153.24C255.21 152.845 255.13 152.419 255.13 151.96C255.13 151.192 255.338 150.584 255.754 150.136C256.17 149.688 256.719 149.373 257.402 149.192V149.064C256.805 148.861 256.33 148.536 255.978 148.088C255.637 147.629 255.466 147.08 255.466 146.44C255.466 145.587 255.781 144.909 256.41 144.408C257.039 143.896 257.919 143.64 259.05 143.64C260.181 143.64 261.061 143.896 261.69 144.408C262.319 144.909 262.634 145.587 262.634 146.44C262.634 147.08 262.458 147.629 262.106 148.088C261.765 148.536 261.295 148.861 260.698 149.064V149.192C261.381 149.373 261.93 149.688 262.346 150.136C262.762 150.584 262.97 151.192 262.97 151.96C262.97 152.419 262.885 152.845 262.714 153.24C262.554 153.635 262.309 153.976 261.978 154.264C261.647 154.552 261.237 154.781 260.746 154.952C260.266 155.112 259.701 155.192 259.05 155.192ZM259.05 154.056C259.839 154.056 260.458 153.88 260.906 153.528C261.354 153.176 261.578 152.68 261.578 152.04V151.688C261.578 151.048 261.354 150.552 260.906 150.2C260.469 149.848 259.85 149.672 259.05 149.672C258.25 149.672 257.626 149.848 257.178 150.2C256.741 150.552 256.522 151.048 256.522 151.688V152.04C256.522 152.68 256.746 153.176 257.194 153.528C257.642 153.88 258.261 154.056 259.05 154.056ZM259.05 148.584C259.775 148.584 260.325 148.429 260.698 148.12C261.082 147.811 261.274 147.368 261.274 146.792V146.568C261.274 145.992 261.077 145.549 260.682 145.24C260.298 144.931 259.754 144.776 259.05 144.776C258.346 144.776 257.797 144.931 257.402 145.24C257.018 145.549 256.826 145.992 256.826 146.568V146.792C256.826 147.368 257.013 147.811 257.386 148.12C257.77 148.429 258.325 148.584 259.05 148.584Z" fill="white"/>
<path d="M25.52 119.832H28.64C30.0053 119.832 31.024 120.301 31.696 121.24C32.368 122.179 32.704 123.571 32.704 125.416C32.704 127.261 32.368 128.653 31.696 129.592C31.024 130.531 30.0053 131 28.64 131H25.52V119.832ZM28.576 129.832C29.472 129.832 30.144 129.523 30.592 128.904C31.0507 128.285 31.28 127.411 31.28 126.28V124.552C31.28 123.421 31.0507 122.547 30.592 121.928C30.144 121.309 29.472 121 28.576 121H26.864V129.832H28.576ZM41.2738 119.832V128.104C41.2738 128.573 41.1938 129 41.0338 129.384C40.8738 129.768 40.6444 130.093 40.3458 130.36C40.0578 130.627 39.7111 130.835 39.3058 130.984C38.9004 131.123 38.4578 131.192 37.9778 131.192C37.1244 131.192 36.4204 130.973 35.8658 130.536C35.3111 130.088 34.9484 129.464 34.7778 128.664L36.0578 128.392C36.1111 128.616 36.1804 128.829 36.2658 129.032C36.3618 129.224 36.4844 129.395 36.6338 129.544C36.7938 129.683 36.9858 129.795 37.2098 129.88C37.4338 129.965 37.7004 130.008 38.0098 130.008C38.6178 130.008 39.0871 129.837 39.4178 129.496C39.7591 129.144 39.9298 128.6 39.9298 127.864V121H35.8978V119.832H41.2738ZM57.5493 131.192C56.5466 131.192 55.7253 131.011 55.0853 130.648C54.4453 130.275 53.9173 129.8 53.5013 129.224L54.4773 128.424C54.9146 128.968 55.3733 129.373 55.8533 129.64C56.3439 129.907 56.9253 130.04 57.5973 130.04C58.4079 130.04 59.0266 129.853 59.4533 129.48C59.8799 129.107 60.0933 128.584 60.0933 127.912C60.0933 127.368 59.9386 126.947 59.6293 126.648C59.3199 126.339 58.7813 126.12 58.0133 125.992L56.7653 125.784C56.2213 125.688 55.7626 125.544 55.3893 125.352C55.0266 125.16 54.7333 124.931 54.5093 124.664C54.2853 124.387 54.1253 124.088 54.0293 123.768C53.9333 123.437 53.8853 123.096 53.8853 122.744C53.8853 121.72 54.2213 120.947 54.8932 120.424C55.5653 119.901 56.4719 119.64 57.6133 119.64C58.5093 119.64 59.2613 119.789 59.8693 120.088C60.4879 120.387 60.9839 120.808 61.3573 121.352L60.4133 122.168C60.1039 121.763 59.7306 121.432 59.2933 121.176C58.8559 120.92 58.2906 120.792 57.5973 120.792C56.8399 120.792 56.2586 120.952 55.8533 121.272C55.4479 121.592 55.2453 122.072 55.2453 122.712C55.2453 123.213 55.3946 123.624 55.6933 123.944C56.0026 124.253 56.5519 124.477 57.3413 124.616L58.5413 124.824C59.0853 124.92 59.5439 125.064 59.9173 125.256C60.2906 125.448 60.5893 125.677 60.8133 125.944C61.0479 126.211 61.2133 126.509 61.3093 126.84C61.4053 127.171 61.4533 127.517 61.4533 127.88C61.4533 128.915 61.1119 129.725 60.4293 130.312C59.7573 130.899 58.7973 131.192 57.5493 131.192ZM63.943 131V122.744H65.223V124.088H65.287C65.3723 123.885 65.479 123.693 65.607 123.512C65.735 123.32 65.8897 123.155 66.071 123.016C66.263 122.877 66.487 122.765 66.743 122.68C66.999 122.595 67.2977 122.552 67.639 122.552C68.503 122.552 69.1963 122.829 69.719 123.384C70.2417 123.928 70.503 124.701 70.503 125.704V131H69.223V125.928C69.223 125.171 69.0577 124.611 68.727 124.248C68.3963 123.875 67.911 123.688 67.271 123.688C67.015 123.688 66.7643 123.72 66.519 123.784C66.2737 123.848 66.055 123.944 65.863 124.072C65.671 124.2 65.5163 124.365 65.399 124.568C65.2817 124.771 65.223 125.005 65.223 125.272V131H63.943ZM79.8888 131C79.3874 131 79.0301 130.872 78.8168 130.616C78.6034 130.36 78.4701 130.04 78.4168 129.656H78.3368C78.1554 130.136 77.8621 130.515 77.4568 130.792C77.0621 131.059 76.5288 131.192 75.8568 131.192C74.9928 131.192 74.3048 130.968 73.7928 130.52C73.2808 130.072 73.0247 129.459 73.0247 128.68C73.0247 127.912 73.3021 127.32 73.8568 126.904C74.4221 126.488 75.3288 126.28 76.5768 126.28H78.3368V125.464C78.3368 124.856 78.1661 124.403 77.8248 124.104C77.4834 123.795 76.9981 123.64 76.3688 123.64C75.8141 123.64 75.3608 123.752 75.0088 123.976C74.6568 124.189 74.3741 124.483 74.1608 124.856L73.2968 124.216C73.4034 124.003 73.5474 123.795 73.7288 123.592C73.9101 123.389 74.1341 123.213 74.4008 123.064C74.6674 122.904 74.9714 122.781 75.3128 122.696C75.6541 122.6 76.0328 122.552 76.4488 122.552C77.4194 122.552 78.1874 122.797 78.7528 123.288C79.3288 123.779 79.6168 124.461 79.6168 125.336V129.88H80.7688V131H79.8888ZM76.0807 130.12C76.4114 130.12 76.7101 130.083 76.9768 130.008C77.2541 129.923 77.4941 129.816 77.6968 129.688C77.8994 129.549 78.0541 129.389 78.1608 129.208C78.2781 129.016 78.3368 128.813 78.3368 128.6V127.24H76.5768C75.8088 127.24 75.2488 127.347 74.8968 127.56C74.5448 127.773 74.3688 128.083 74.3688 128.488V128.824C74.3688 129.251 74.5181 129.576 74.8168 129.8C75.1261 130.013 75.5474 130.12 76.0807 130.12ZM83.2425 119.16H84.5225V126.632H84.5865L86.0265 125.272L88.7785 122.744H90.3465L86.9225 125.976L90.7465 131H89.1625L85.9465 126.712L84.5225 128.008V131H83.2425V119.16ZM96.1003 131.192C95.5029 131.192 94.9643 131.091 94.4843 130.888C94.0149 130.685 93.6096 130.397 93.2682 130.024C92.9376 129.64 92.6816 129.187 92.5003 128.664C92.3189 128.131 92.2283 127.539 92.2283 126.888C92.2283 126.227 92.3189 125.629 92.5003 125.096C92.6923 124.563 92.9536 124.109 93.2843 123.736C93.6149 123.352 94.0096 123.059 94.4683 122.856C94.9376 122.653 95.4549 122.552 96.0203 122.552C96.5749 122.552 97.0763 122.653 97.5243 122.856C97.9829 123.059 98.3723 123.341 98.6923 123.704C99.0123 124.056 99.2576 124.477 99.4283 124.968C99.5989 125.459 99.6843 125.997 99.6843 126.584V127.192H93.5723V127.576C93.5723 127.939 93.6309 128.275 93.7483 128.584C93.8656 128.893 94.0309 129.16 94.2443 129.384C94.4683 129.608 94.7349 129.784 95.0443 129.912C95.3643 130.029 95.7163 130.088 96.1003 130.088C96.6549 130.088 97.1349 129.96 97.5403 129.704C97.9456 129.448 98.2549 129.096 98.4683 128.648L99.4123 129.288C99.1669 129.843 98.7563 130.301 98.1803 130.664C97.6149 131.016 96.9216 131.192 96.1003 131.192ZM96.0203 123.608C95.6683 123.608 95.3429 123.672 95.0443 123.8C94.7456 123.928 94.4843 124.104 94.2603 124.328C94.0469 124.552 93.8763 124.819 93.7483 125.128C93.6309 125.427 93.5723 125.757 93.5723 126.12V126.232H98.3083V126.056C98.3083 125.693 98.2496 125.363 98.1323 125.064C98.0256 124.765 97.8709 124.509 97.6683 124.296C97.4763 124.072 97.2363 123.901 96.9483 123.784C96.6709 123.667 96.3616 123.608 96.0203 123.608Z" fill="white"/>
<path opacity="0.9" d="M30.144 46.24C29.3653 46.24 28.656 46.112 28.016 45.856C27.376 45.6 26.8267 45.2267 26.368 44.736C25.9093 44.2453 25.552 43.6427 25.296 42.928C25.0507 42.2027 24.928 41.376 24.928 40.448C24.928 39.52 25.0667 38.6987 25.344 37.984C25.632 37.2587 26.016 36.6507 26.496 36.16C26.976 35.6693 27.536 35.296 28.176 35.04C28.816 34.784 29.4987 34.656 30.224 34.656C30.6827 34.656 31.0933 34.688 31.456 34.752C31.8293 34.816 32.1493 34.8907 32.416 34.976C32.6933 35.0613 32.9173 35.1467 33.088 35.232C33.2587 35.3173 33.376 35.3813 33.44 35.424L32.992 36.704C32.896 36.64 32.7573 36.5707 32.576 36.496C32.3947 36.4213 32.1867 36.3467 31.952 36.272C31.728 36.1973 31.4773 36.1387 31.2 36.096C30.9333 36.0427 30.6613 36.016 30.384 36.016C29.7973 36.016 29.2693 36.1173 28.8 36.32C28.3307 36.5227 27.9307 36.816 27.6 37.2C27.2693 37.584 27.0133 38.0533 26.832 38.608C26.6613 39.152 26.576 39.7653 26.576 40.448C26.576 41.1093 26.6507 41.712 26.8 42.256C26.96 42.8 27.1947 43.2693 27.504 43.664C27.8133 44.048 28.1973 44.3467 28.656 44.56C29.1253 44.7733 29.6693 44.88 30.288 44.88C31.0027 44.88 31.5947 44.8053 32.064 44.656C32.5333 44.5067 32.8853 44.3733 33.12 44.256L33.52 45.536C33.4453 45.5893 33.312 45.6587 33.12 45.744C32.928 45.8187 32.688 45.8933 32.4 45.968C32.112 46.0427 31.776 46.1067 31.392 46.16C31.008 46.2133 30.592 46.24 30.144 46.24ZM38.2739 37.504C38.4019 37.504 38.5459 37.5147 38.7059 37.536C38.8765 37.5467 39.0419 37.568 39.2019 37.6C39.3619 37.6213 39.5059 37.648 39.6339 37.68C39.7725 37.7013 39.8739 37.7227 39.9379 37.744L39.6819 39.04C39.5645 38.9973 39.3672 38.9493 39.0899 38.896C38.8232 38.832 38.4765 38.8 38.0499 38.8C37.7725 38.8 37.4952 38.832 37.2179 38.896C36.9512 38.9493 36.7752 38.9867 36.6899 39.008V46H35.2019V38.032C35.5539 37.904 35.9912 37.7867 36.5139 37.68C37.0365 37.5627 37.6232 37.504 38.2739 37.504ZM40.9098 41.856C40.9098 41.12 41.0164 40.48 41.2298 39.936C41.4431 39.3813 41.7258 38.9227 42.0778 38.56C42.4298 38.1973 42.8351 37.9253 43.2938 37.744C43.7524 37.5627 44.2218 37.472 44.7018 37.472C45.8218 37.472 46.6804 37.824 47.2778 38.528C47.8751 39.2213 48.1737 40.2827 48.1737 41.712C48.1737 41.776 48.1737 41.8613 48.1737 41.968C48.1737 42.064 48.1684 42.1547 48.1578 42.24H42.4618C42.5258 43.104 42.7764 43.76 43.2138 44.208C43.6511 44.656 44.3338 44.88 45.2618 44.88C45.7844 44.88 46.2218 44.8373 46.5738 44.752C46.9364 44.656 47.2084 44.5653 47.3898 44.48L47.5978 45.728C47.4164 45.824 47.0964 45.9253 46.6378 46.032C46.1898 46.1387 45.6778 46.192 45.1018 46.192C44.3764 46.192 43.7471 46.0853 43.2138 45.872C42.6911 45.648 42.2591 45.344 41.9178 44.96C41.5764 44.576 41.3204 44.1227 41.1497 43.6C40.9898 43.0667 40.9098 42.4853 40.9098 41.856ZM46.6218 41.04C46.6324 40.368 46.4618 39.8187 46.1098 39.392C45.7684 38.9547 45.2938 38.736 44.6858 38.736C44.3444 38.736 44.0404 38.8053 43.7738 38.944C43.5178 39.072 43.2991 39.2427 43.1178 39.456C42.9364 39.6693 42.7924 39.9147 42.6858 40.192C42.5898 40.4693 42.5258 40.752 42.4938 41.04H46.6218ZM55.6873 39.44C55.5059 39.2907 55.2446 39.1467 54.9033 39.008C54.5619 38.8693 54.1886 38.8 53.7833 38.8C53.3566 38.8 52.9886 38.88 52.6793 39.04C52.3806 39.1893 52.1353 39.4027 51.9433 39.68C51.7513 39.9467 51.6126 40.2667 51.5273 40.64C51.4419 41.0133 51.3993 41.4133 51.3993 41.84C51.3993 42.8107 51.6393 43.5627 52.1193 44.096C52.5993 44.6187 53.2393 44.88 54.0393 44.88C54.4446 44.88 54.7806 44.864 55.0473 44.832C55.3246 44.7893 55.5379 44.7467 55.6873 44.704V39.44ZM55.6873 33.84L57.1753 33.584V45.76C56.8339 45.856 56.3966 45.952 55.8633 46.048C55.3299 46.144 54.7166 46.192 54.0233 46.192C53.3833 46.192 52.8073 46.0907 52.2953 45.888C51.7833 45.6853 51.3459 45.3973 50.9833 45.024C50.6206 44.6507 50.3379 44.1973 50.1353 43.664C49.9433 43.12 49.8473 42.512 49.8473 41.84C49.8473 41.2 49.9273 40.6133 50.0872 40.08C50.2579 39.5467 50.5033 39.088 50.8233 38.704C51.1433 38.32 51.5326 38.0213 51.9913 37.808C52.4606 37.5947 52.9939 37.488 53.5913 37.488C54.0713 37.488 54.4926 37.552 54.8553 37.68C55.2286 37.808 55.5059 37.9307 55.6873 38.048V33.84ZM61.2211 46H59.7331V37.68H61.2211V46ZM60.4691 36.176C60.2025 36.176 59.9731 36.0907 59.7811 35.92C59.5998 35.7387 59.5091 35.4987 59.5091 35.2C59.5091 34.9013 59.5998 34.6667 59.7811 34.496C59.9731 34.3147 60.2025 34.224 60.4691 34.224C60.7358 34.224 60.9598 34.3147 61.1411 34.496C61.3331 34.6667 61.4291 34.9013 61.4291 35.2C61.4291 35.4987 61.3331 35.7387 61.1411 35.92C60.9598 36.0907 60.7358 36.176 60.4691 36.176ZM65.172 37.68H68.324V38.928H65.172V42.768C65.172 43.184 65.204 43.5307 65.268 43.808C65.332 44.0747 65.428 44.288 65.556 44.448C65.684 44.5973 65.844 44.704 66.036 44.768C66.228 44.832 66.452 44.864 66.708 44.864C67.156 44.864 67.5133 44.816 67.78 44.72C68.0573 44.6133 68.2493 44.5387 68.356 44.496L68.644 45.728C68.4947 45.8027 68.2333 45.8933 67.86 46C67.4867 46.1173 67.06 46.176 66.58 46.176C66.0147 46.176 65.5453 46.1067 65.172 45.968C64.8093 45.8187 64.516 45.6 64.292 45.312C64.068 45.024 63.908 44.672 63.812 44.256C63.7267 43.8293 63.684 43.3387 63.684 42.784V35.36L65.172 35.104V37.68Z" fill="white"/>
<circle cx="278" cy="47.9412" r="15" fill="#EB001B"/>
<circle cx="296" cy="47.9412" r="15" fill="#F79E1B"/>
<path fill-rule="evenodd" clip-rule="evenodd" d="M287 59.9411C291.141 57.5458 293.927 53.0688 293.927 47.9412C293.927 42.8135 291.141 38.3365 287 35.9412C282.859 38.3365 280.073 42.8135 280.073 47.9412C280.073 53.0688 282.859 57.5458 287 59.9411Z" fill="#FF5F00"/>
<defs>
<filter id="filter0_b_8_856" x="-80" y="-80" width="495" height="345" filterUnits="userSpaceOnUse" color-interpolation-filters="sRGB">
<feFlood flood-opacity="0" result="BackgroundImageFix"/>
<feGaussianBlur in="BackgroundImageFix" stdDeviation="40"/>
<feComposite in2="SourceAlpha" operator="in" result="effect1_backgroundBlur_8_856"/>
<feBlend mode="normal" in="SourceGraphic" in2="effect1_backgroundBlur_8_856" result="shape"/>
</filter>
<linearGradient id="paint0_linear_8_856" x1="-85" y1="-38.5" x2="382" y2="205.5" gradientUnits="userSpaceOnUse">
<stop offset="0.0364583"/>
<stop offset="0.878935" stop-color="#0FB8B8"/>
</linearGradient>
</defs>
</svg>
