<svg width="259" height="91" viewBox="0 0 259 91" fill="none" xmlns="http://www.w3.org/2000/svg">
<path d="M24.9756 58.73L30.5396 57.8228V13.7949L24.9756 12.9482V11.6177H43.4214C47.7758 11.6177 51.2432 12.0209 53.8236 12.8273C56.4039 13.6336 58.2788 14.8633 59.448 16.5164C60.6172 18.1291 61.2019 20.266 61.2019 22.9271C61.2019 28.7329 57.5329 32.4422 50.1949 34.055V34.3574C54.6702 34.9622 58.1376 36.2927 60.5971 38.3489C63.0968 40.4052 64.3467 43.2678 64.3467 46.9368C64.3467 51.3718 62.7138 54.6578 59.448 56.7947C56.2225 58.9316 51.8479 60 46.3243 60H24.9756V58.73ZM43.9052 33.8736C47.1307 33.8736 49.6103 32.9664 51.344 31.1521C53.0777 29.3377 53.9445 26.7573 53.9445 23.4109V23.048C53.9445 16.4358 50.4368 13.1296 43.4214 13.1296H37.1921V33.8736H43.9052ZM46.3243 58.5485C49.7514 58.5485 52.4124 57.5607 54.3074 55.5851C56.2023 53.5692 57.1498 50.7066 57.1498 46.9973V46.332C57.1498 42.663 56.2023 39.9213 54.3074 38.107C52.4527 36.2927 49.7917 35.3855 46.3243 35.3855H37.1921V58.5485H46.3243ZM82.2552 60.6048C79.3523 60.6048 77.0541 59.879 75.3608 58.4276C73.7077 56.9761 72.8812 54.8191 72.8812 51.9564V30.4868L68.6477 29.882V28.6725H78.929V51.8355C78.929 53.8917 79.3523 55.5045 80.199 56.6737C81.0457 57.843 82.356 58.4276 84.1301 58.4276C85.9847 58.4276 87.7587 57.8228 89.4521 56.6132C91.1858 55.3634 92.7179 53.8313 94.0484 52.0169V30.4868L89.815 29.882V28.6725H100.096V58.1857L104.33 58.7904V60H94.0484V54.1941C92.597 56.2101 90.8431 57.7825 88.7868 58.9114C86.7709 60.0403 84.5937 60.6048 82.2552 60.6048ZM122.886 60.6048C120.024 60.6048 117.504 59.9395 115.327 58.609C113.15 57.2382 111.456 55.3432 110.247 52.9241C109.037 50.4647 108.432 47.602 108.432 44.3362C108.432 41.0704 109.037 38.228 110.247 35.8088C111.456 33.3494 113.15 31.4544 115.327 30.1239C117.504 28.7934 120.024 28.1282 122.886 28.1282C125.225 28.1282 127.261 28.7531 128.995 30.003C130.728 31.2125 132.099 32.8858 133.107 35.0226V13.432L128.874 12.8273V11.6177H139.155V58.1857L143.388 58.7904V60H133.107V53.7103C132.099 55.8472 130.728 57.5406 128.995 58.7904C127.261 60 125.225 60.6048 122.886 60.6048ZM123.491 59.0928C125.265 59.0928 126.858 58.5888 128.269 57.5809C129.72 56.5326 130.87 55.1618 131.716 53.4684C132.603 51.7347 133.067 49.8599 133.107 47.8439V40.889C133.067 38.8731 132.603 37.0184 131.716 35.325C130.87 33.5913 129.72 32.2205 128.269 31.2125C126.858 30.1642 125.265 29.6401 123.491 29.6401C117.887 29.6401 115.085 33.5308 115.085 41.3123V47.3601C115.085 55.1819 117.887 59.0928 123.491 59.0928ZM163.201 60.6048C160.218 60.6048 157.516 59.9395 155.097 58.609C152.678 57.2382 150.763 55.323 149.352 52.8636C147.941 50.4042 147.235 47.5617 147.235 44.3362C147.235 41.1107 147.92 38.2884 149.291 35.8693C150.702 33.4099 152.577 31.5149 154.916 30.1844C157.294 28.8136 159.935 28.1282 162.838 28.1282C165.378 28.1282 167.656 28.6926 169.672 29.8215C171.688 30.9505 173.261 32.5229 174.389 34.5388C175.518 36.5144 176.103 38.7924 176.143 41.3728H153.887V47.3601C153.887 50.9082 154.674 53.7909 156.246 56.0085C157.859 58.1857 160.177 59.2743 163.201 59.2743C165.983 59.2743 168.443 58.4881 170.579 56.9156C172.716 55.3432 174.027 53.3071 174.51 50.8074H175.901C175.337 53.7909 173.906 56.1697 171.608 57.9438C169.309 59.7178 166.507 60.6048 163.201 60.6048ZM169.491 39.8609C169.491 36.3532 168.946 33.7526 167.858 32.0592C166.769 30.3255 165.076 29.4587 162.778 29.4587C160.076 29.4587 157.98 30.4062 156.488 32.3011C154.996 34.1961 154.15 36.716 153.948 39.8609H169.491ZM211.193 25.83C211.193 27.4024 210.608 28.7531 209.439 29.882C208.27 31.0109 206.415 31.7367 203.875 32.0592C204.924 33.5913 205.448 35.6879 205.448 38.3489C205.448 41.4938 204.319 43.9734 202.061 45.7877C199.843 47.602 197.021 48.5092 193.594 48.5092C192.183 48.5092 190.893 48.3882 189.723 48.1463C187.143 48.3076 185.853 49.3156 185.853 51.1702C185.853 52.2185 186.276 52.9846 187.123 53.4684C188.01 53.9522 189.401 54.1941 191.296 54.1941H198.069C201.335 54.1941 203.754 54.8594 205.327 56.1899C206.94 57.5204 207.746 59.7984 207.746 63.0239C207.746 65.2817 207.161 67.3581 205.992 69.2531C204.863 71.1481 203.21 72.6399 201.033 73.7285C198.856 74.8574 196.255 75.4219 193.231 75.4219C188.675 75.4219 185.309 74.7364 183.131 73.3656C180.994 71.9948 179.926 70.1804 179.926 67.9226C179.926 66.5518 180.45 65.3422 181.498 64.2939C182.547 63.2456 183.978 62.7215 185.792 62.7215C186.155 62.7215 186.901 62.8021 188.03 62.9634C186.78 64.2939 186.155 65.8664 186.155 67.6807C186.155 69.4144 186.76 70.9263 187.97 72.2165C189.179 73.5067 191.155 74.1518 193.896 74.1518C196.275 74.1518 198.392 73.6882 200.247 72.7608C202.142 71.8738 203.593 70.7046 204.601 69.2531C205.609 67.8016 206.113 66.3099 206.113 64.7778C206.113 63.0844 205.569 61.8547 204.48 61.0886C203.391 60.3629 201.456 60 198.674 60H191.296C188.474 60 186.337 59.4557 184.885 58.3671C183.474 57.2382 182.769 55.5851 182.769 53.4079C182.769 51.9564 183.172 50.6864 183.978 49.5978C184.825 48.4689 185.893 47.7432 187.183 47.4206C183.676 45.9288 181.922 42.9049 181.922 38.3489C181.922 35.1638 183.031 32.664 185.248 30.8497C187.466 29.0353 190.248 28.1282 193.594 28.1282C197.828 28.1282 200.892 29.0152 202.787 30.7892C203.916 30.5876 204.762 30.2247 205.327 29.7006C205.891 29.1361 206.173 28.5112 206.173 27.8258C206.173 27.1807 205.992 26.6968 205.629 26.3743C205.266 26.0114 204.843 25.83 204.359 25.83C204.359 24.943 204.682 24.1769 205.327 23.5318C206.012 22.8464 206.819 22.5037 207.746 22.5037C208.754 22.5037 209.58 22.8061 210.225 23.4109C210.871 24.0157 211.193 24.822 211.193 25.83ZM199.763 36.837C199.763 34.3775 199.239 32.4826 198.19 31.1521C197.182 29.8215 195.65 29.1563 193.594 29.1563C189.603 29.1563 187.607 31.7165 187.607 36.837V39.8004C187.607 42.1792 188.091 44.054 189.058 45.4248C190.066 46.7957 191.578 47.4811 193.594 47.4811C195.65 47.4811 197.182 46.7957 198.19 45.4248C199.239 44.054 199.763 42.1792 199.763 39.8004V36.837ZM222.512 60.6048C219.932 60.6048 217.815 59.9395 216.162 58.609C214.509 57.2382 213.682 55.2222 213.682 52.5612C213.682 48.7713 215.275 46.0901 218.46 44.5177C221.645 42.9049 225.334 42.0985 229.527 42.0985H233.579V37.4418C233.579 35.3452 233.337 33.7324 232.854 32.6035C232.41 31.4343 231.705 30.6279 230.737 30.1844C229.769 29.7006 228.459 29.4587 226.806 29.4587C224.911 29.4587 223.5 29.8417 222.572 30.6078C221.645 31.3335 221.181 32.3213 221.181 33.5712C221.181 34.7404 221.746 35.5065 222.875 35.8693C222.875 36.8773 222.492 37.7643 221.726 38.5304C220.96 39.2964 220.052 39.6794 219.004 39.6794C217.875 39.6794 216.968 39.377 216.283 38.7723C215.597 38.1272 215.255 37.1595 215.255 35.8693C215.255 33.5308 216.424 31.656 218.762 30.2449C221.101 28.8337 224.024 28.1282 227.532 28.1282C235.595 28.1282 239.627 31.6359 239.627 38.6513V55.948C239.627 56.835 239.809 57.5204 240.171 58.0042C240.575 58.4477 241.139 58.6695 241.865 58.6695C242.55 58.6695 243.095 58.4477 243.498 58.0042C243.901 57.5204 244.103 56.8753 244.103 56.0689H245.373C245.373 57.4801 244.909 58.5888 243.982 59.3952C243.095 60.2016 241.845 60.6048 240.232 60.6048C238.377 60.6048 236.805 60.0806 235.515 59.0324C234.265 57.9438 233.62 56.2705 233.579 54.0127C232.612 56.0689 231.12 57.6817 229.104 58.8509C227.128 60.0202 224.931 60.6048 222.512 60.6048ZM225.838 57.9438C226.927 57.9438 228.036 57.6212 229.164 56.9761C230.334 56.331 231.322 55.4037 232.128 54.1941C232.934 52.9442 233.418 51.4525 233.579 49.7188V43.4291H229.527C226.221 43.4291 223.742 44.175 222.089 45.6667C220.476 47.1182 219.669 49.1745 219.669 51.8355C219.669 54.053 220.194 55.6254 221.242 56.5528C222.29 57.4801 223.822 57.9438 225.838 57.9438Z" fill="black"/>
<path d="M21.1317 54.3838C21.1317 55.2494 20.9812 56.0271 20.6801 56.717C20.3665 57.3944 19.94 57.9276 19.4006 58.3164C18.8487 58.7053 18.2152 58.906 17.5001 58.9186L17.5001 57.0934C18.1148 57.0307 18.6354 56.7798 19.0619 56.3407C19.4759 55.8891 19.6828 55.2368 19.6828 54.3838C19.6828 53.5684 19.4821 52.9287 19.0807 52.4645C18.6668 51.9878 18.1399 51.7495 17.5001 51.7495C16.9984 51.7495 16.5907 51.8875 16.2771 52.1635C15.9635 52.4394 15.7251 52.7844 15.562 53.1984C15.399 53.6123 15.2234 54.1706 15.0352 54.873C14.8094 55.7386 14.5836 56.4348 14.3578 56.9617C14.132 57.476 13.7808 57.9213 13.3041 58.2976C12.8148 58.6614 12.1625 58.8433 11.3472 58.8433C10.6321 58.8433 9.99865 58.6614 9.44671 58.2976C8.89476 57.9338 8.46825 57.4258 8.16719 56.7735C7.86613 56.1086 7.71559 55.3497 7.71559 54.4967C7.71559 53.2674 8.02293 52.2638 8.6376 51.4861C9.25227 50.6958 10.0676 50.2505 11.0837 50.1501L11.0837 52.0317C10.582 52.0945 10.1429 52.3579 9.76659 52.822C9.37771 53.2862 9.18328 53.9008 9.18328 54.6661C9.18328 55.3811 9.37144 55.9644 9.74777 56.416C10.1116 56.8676 10.6259 57.0934 11.2907 57.0934C11.7674 57.0934 12.1563 56.9617 12.4573 56.6982C12.7584 56.4223 12.9905 56.0898 13.1535 55.701C13.3041 55.2995 13.4797 54.7413 13.6804 54.0263C13.9187 53.1607 14.1571 52.4645 14.3954 51.9377C14.6212 51.4108 14.9787 50.9592 15.468 50.5829C15.9446 50.2066 16.597 50.0184 17.4249 50.0184C18.0646 50.0184 18.6668 50.1877 19.2313 50.5264C19.7957 50.8651 20.2536 51.3669 20.6049 52.0317C20.9561 52.6966 21.1317 53.4806 21.1317 54.3838ZM12.0998 45.41L18.1775 45.41C18.6793 45.41 19.0368 45.3034 19.2501 45.0901C19.4508 44.8768 19.5511 44.5068 19.5511 43.9799L19.5511 42.7192L21 42.7192L21 44.2622C21 45.2155 20.7805 45.9306 20.3414 46.4073C19.9024 46.8839 19.1811 47.1223 18.1775 47.1223L12.0998 47.1223L12.0998 48.4582L10.6886 48.4582L10.6886 47.1223L8.09192 47.1223L8.09192 45.41L10.6886 45.41L10.6886 42.7192L12.0998 42.7192L12.0998 45.41ZM21.1693 36.1474C21.1693 37.1134 20.9498 37.9915 20.5108 38.7817C20.0717 39.5595 19.4508 40.1742 18.6479 40.6258C17.8326 41.0648 16.8917 41.2843 15.8255 41.2843C14.7718 41.2843 13.8435 41.0585 13.0406 40.6069C12.2253 40.1428 11.6043 39.5156 11.1778 38.7253C10.7388 37.935 10.5192 37.0506 10.5192 36.0722C10.5192 35.0937 10.7388 34.2093 11.1778 33.4191C11.6043 32.6288 12.219 32.0078 13.0218 31.5562C13.8247 31.0921 14.7592 30.86 15.8255 30.86C16.8917 30.86 17.8326 31.0984 18.6479 31.575C19.4508 32.0392 20.0717 32.6727 20.5108 33.4755C20.9498 34.2783 21.1693 35.169 21.1693 36.1474ZM19.664 36.1474C19.664 35.5328 19.5198 34.9557 19.2313 34.4163C18.9427 33.8769 18.51 33.4441 17.9329 33.118C17.3559 32.7793 16.6534 32.61 15.8255 32.61C14.9976 32.61 14.2951 32.773 13.718 33.0992C13.141 33.4253 12.7145 33.8518 12.4385 34.3787C12.15 34.9056 12.0057 35.4763 12.0057 36.091C12.0057 36.7182 12.15 37.2952 12.4385 37.8221C12.7145 38.3364 13.141 38.7504 13.718 39.064C14.2951 39.3776 14.9976 39.5344 15.8255 39.5344C16.6659 39.5344 17.3747 39.3839 17.9517 39.0828C18.5288 38.7692 18.9616 38.3552 19.2501 37.8409C19.526 37.3266 19.664 36.7621 19.664 36.1474ZM12.3633 26.8964C11.7737 26.5953 11.3158 26.1688 10.9897 25.6169C10.6635 25.0524 10.5004 24.3687 10.5004 23.5659L12.2692 23.5659L12.2692 24.0175C12.2692 25.9367 13.3103 26.8964 15.3927 26.8964L21 26.8964L21 28.6087L10.6886 28.6087L10.6886 26.8964L12.3633 26.8964ZM15.4491 12.181C15.7753 12.181 16.1203 12.1998 16.4841 12.2375L16.4841 20.4791C17.5001 20.4164 18.2967 20.0714 18.8737 19.4442C19.4382 18.8044 19.7205 18.0329 19.7205 17.1298C19.7205 16.3896 19.5511 15.775 19.2124 15.2857C18.8612 14.784 18.3971 14.4327 17.82 14.232L17.82 12.388C18.811 12.664 19.6201 13.2159 20.2473 14.0439C20.862 14.8718 21.1693 15.9004 21.1693 17.1298C21.1693 18.1082 20.9498 18.9863 20.5108 19.7641C20.0717 20.5293 19.4508 21.1314 18.6479 21.5704C17.8326 22.0095 16.8917 22.229 15.8255 22.229C14.7592 22.229 13.8247 22.0158 13.0218 21.5892C12.219 21.1627 11.6043 20.5669 11.1778 19.8017C10.7388 19.0239 10.5192 18.1333 10.5192 17.1298C10.5192 16.1513 10.7325 15.2857 11.159 14.5331C11.5855 13.7804 12.1751 13.2034 12.9277 12.802C13.6679 12.388 14.5083 12.181 15.4491 12.181ZM15.0916 13.9498C14.4393 13.9498 13.8811 14.094 13.417 14.3826C12.9403 14.6711 12.5828 15.0662 12.3444 15.568C12.0936 16.0572 11.9681 16.6029 11.9681 17.205C11.9681 18.0706 12.2441 18.8107 12.796 19.4254C13.348 20.0275 14.1132 20.3725 15.0916 20.4603L15.0916 13.9498Z" fill="black"/>
</svg>
